<mxfile host="Electron" agent="Mozilla/5.0 (Windows NT 10.0; Win64; x64) AppleWebKit/537.36 (KHTML, like Gecko) draw.io/28.1.2 Chrome/138.0.7204.243 Electron/37.4.0 Safari/537.36" version="28.1.2">
  <diagram name="Page-1" id="hLuY6qi0X4O2KVIpwF7x">
    <mxGraphModel dx="1878" dy="619" grid="1" gridSize="10" guides="1" tooltips="1" connect="1" arrows="1" fold="1" page="1" pageScale="1" pageWidth="850" pageHeight="1100" math="0" shadow="0">
      <root>
        <mxCell id="0" />
        <mxCell id="1" parent="0" />
        <mxCell id="GZH07b2RbEYxaKx2U_Rh-38" value="" style="rounded=1;whiteSpace=wrap;html=1;fillColor=none;strokeColor=#1A1A1A;dashed=1;dashPattern=8 8;" parent="1" vertex="1">
          <mxGeometry x="680" y="115" width="690" height="525" as="geometry" />
        </mxCell>
        <mxCell id="GZH07b2RbEYxaKx2U_Rh-35" value="" style="rounded=1;whiteSpace=wrap;html=1;fillColor=none;strokeColor=#1A1A1A;dashed=1;dashPattern=8 8;" parent="1" vertex="1">
          <mxGeometry x="-90" y="115" width="720" height="525" as="geometry" />
        </mxCell>
        <mxCell id="GZH07b2RbEYxaKx2U_Rh-2" value="&lt;font style=&quot;&quot;&gt;&lt;b style=&quot;font-size: 19px;&quot;&gt;INTEGRATION MODEL &lt;/b&gt;&lt;font style=&quot;font-size: 11px;&quot;&gt;(How the Tables are related)&lt;/font&gt;&lt;/font&gt;" style="text;html=1;align=center;verticalAlign=middle;whiteSpace=wrap;rounded=0;" parent="1" vertex="1">
          <mxGeometry x="-150" y="10" width="400" height="40" as="geometry" />
        </mxCell>
        <mxCell id="GZH07b2RbEYxaKx2U_Rh-3" value="&lt;b&gt;crm_cust_info&lt;/b&gt;" style="swimlane;fontStyle=0;childLayout=stackLayout;horizontal=1;startSize=30;horizontalStack=0;resizeParent=1;resizeParentMax=0;resizeLast=0;collapsible=1;marginBottom=0;whiteSpace=wrap;html=1;fillColor=none;rounded=1;sketch=1;curveFitting=1;jiggle=2;strokeColor=#6c8ebf;fontSize=19;align=center;arcSize=18;" parent="1" vertex="1">
          <mxGeometry x="360" y="350" width="210" height="120" as="geometry">
            <mxRectangle x="320" y="180" width="160" height="40" as="alternateBounds" />
          </mxGeometry>
        </mxCell>
        <mxCell id="GZH07b2RbEYxaKx2U_Rh-4" value="cust_id" style="text;strokeColor=#6c8ebf;fillColor=none;align=center;verticalAlign=middle;spacingLeft=4;spacingRight=4;overflow=hidden;points=[[0,0.5],[1,0.5]];portConstraint=eastwest;rotatable=0;whiteSpace=wrap;html=1;fontSize=19;" parent="GZH07b2RbEYxaKx2U_Rh-3" vertex="1">
          <mxGeometry y="30" width="210" height="30" as="geometry" />
        </mxCell>
        <mxCell id="GZH07b2RbEYxaKx2U_Rh-20" value="cust_key" style="text;strokeColor=#6c8ebf;fillColor=none;align=center;verticalAlign=middle;spacingLeft=4;spacingRight=4;overflow=hidden;points=[[0,0.5],[1,0.5]];portConstraint=eastwest;rotatable=0;whiteSpace=wrap;html=1;fontSize=19;" parent="GZH07b2RbEYxaKx2U_Rh-3" vertex="1">
          <mxGeometry y="60" width="210" height="30" as="geometry" />
        </mxCell>
        <mxCell id="803bFkHNsz5kupFcE3BZ-6" value="&lt;div&gt;&lt;b&gt;&lt;i&gt;Customer&lt;/i&gt;&lt;/b&gt;&lt;/div&gt;" style="text;html=1;strokeColor=#6c8ebf;fillColor=#dae8fc;align=center;verticalAlign=middle;whiteSpace=wrap;overflow=hidden;fontSize=19;" vertex="1" parent="GZH07b2RbEYxaKx2U_Rh-3">
          <mxGeometry y="90" width="210" height="30" as="geometry" />
        </mxCell>
        <mxCell id="GZH07b2RbEYxaKx2U_Rh-7" value="&lt;b&gt;crm_prd_info&lt;/b&gt;" style="swimlane;fontStyle=0;childLayout=stackLayout;horizontal=1;startSize=30;horizontalStack=0;resizeParent=1;resizeParentMax=0;resizeLast=0;collapsible=1;marginBottom=0;whiteSpace=wrap;html=1;fillColor=#dae8fc;rounded=1;sketch=1;curveFitting=1;jiggle=2;strokeColor=#6c8ebf;fontSize=19;align=center;arcSize=18;" parent="1" vertex="1">
          <mxGeometry x="360" y="160" width="205" height="90" as="geometry">
            <mxRectangle x="360" y="160" width="160" height="40" as="alternateBounds" />
          </mxGeometry>
        </mxCell>
        <mxCell id="GZH07b2RbEYxaKx2U_Rh-8" value="prd_key" style="text;strokeColor=#6c8ebf;fillColor=#dae8fc;align=center;verticalAlign=middle;spacingLeft=4;spacingRight=4;overflow=hidden;points=[[0,0.5],[1,0.5]];portConstraint=eastwest;rotatable=0;whiteSpace=wrap;html=1;fontSize=19;" parent="GZH07b2RbEYxaKx2U_Rh-7" vertex="1">
          <mxGeometry y="30" width="205" height="30" as="geometry" />
        </mxCell>
        <mxCell id="803bFkHNsz5kupFcE3BZ-2" value="&lt;b&gt;&lt;i&gt;Product&lt;/i&gt;&lt;/b&gt;&lt;div&gt;&lt;br&gt;&lt;/div&gt;" style="text;html=1;strokeColor=#793735;fillColor=#EA6B66;align=center;verticalAlign=middle;whiteSpace=wrap;overflow=hidden;fontSize=19;" vertex="1" parent="GZH07b2RbEYxaKx2U_Rh-7">
          <mxGeometry y="60" width="205" height="30" as="geometry" />
        </mxCell>
        <mxCell id="GZH07b2RbEYxaKx2U_Rh-9" value="&lt;b&gt;Customer information&lt;/b&gt;" style="text;html=1;align=center;verticalAlign=middle;whiteSpace=wrap;rounded=0;" parent="1" vertex="1">
          <mxGeometry x="370" y="320" width="190" height="30" as="geometry" />
        </mxCell>
        <mxCell id="GZH07b2RbEYxaKx2U_Rh-10" value="&lt;b&gt;Current &amp;amp; Historic product info&lt;/b&gt;" style="text;html=1;align=center;verticalAlign=middle;whiteSpace=wrap;rounded=0;" parent="1" vertex="1">
          <mxGeometry x="365" y="130" width="190" height="30" as="geometry" />
        </mxCell>
        <mxCell id="GZH07b2RbEYxaKx2U_Rh-11" value="&lt;b&gt;crm_sales_details&lt;/b&gt;" style="swimlane;fontStyle=0;childLayout=stackLayout;horizontal=1;startSize=30;horizontalStack=0;resizeParent=1;resizeParentMax=0;resizeLast=0;collapsible=1;marginBottom=0;whiteSpace=wrap;html=1;fillColor=#e1d5e7;rounded=1;sketch=1;curveFitting=1;jiggle=2;strokeColor=#9673a6;fontSize=19;align=center;arcSize=18;" parent="1" vertex="1">
          <mxGeometry x="-70" y="240" width="230" height="140" as="geometry">
            <mxRectangle x="320" y="180" width="160" height="40" as="alternateBounds" />
          </mxGeometry>
        </mxCell>
        <mxCell id="GZH07b2RbEYxaKx2U_Rh-17" value="Pdr_key" style="text;html=1;align=center;verticalAlign=middle;whiteSpace=wrap;rounded=0;fillColor=#dae8fc;strokeColor=#6c8ebf;fontSize=19;" parent="GZH07b2RbEYxaKx2U_Rh-11" vertex="1">
          <mxGeometry y="30" width="230" height="40" as="geometry" />
        </mxCell>
        <mxCell id="GZH07b2RbEYxaKx2U_Rh-12" value="cust_id" style="text;strokeColor=#6c8ebf;fillColor=#dae8fc;align=center;verticalAlign=middle;spacingLeft=4;spacingRight=4;overflow=hidden;points=[[0,0.5],[1,0.5]];portConstraint=eastwest;rotatable=0;whiteSpace=wrap;html=1;fontSize=19;" parent="GZH07b2RbEYxaKx2U_Rh-11" vertex="1">
          <mxGeometry y="70" width="230" height="40" as="geometry" />
        </mxCell>
        <mxCell id="803bFkHNsz5kupFcE3BZ-8" value="&lt;b&gt;&lt;i&gt;Sales&lt;/i&gt;&lt;/b&gt;" style="text;html=1;strokeColor=#6c8ebf;fillColor=#9933FF;align=center;verticalAlign=middle;whiteSpace=wrap;overflow=hidden;fontSize=19;" vertex="1" parent="GZH07b2RbEYxaKx2U_Rh-11">
          <mxGeometry y="110" width="230" height="30" as="geometry" />
        </mxCell>
        <mxCell id="GZH07b2RbEYxaKx2U_Rh-13" value="&lt;b&gt;Transactional Records About sales &amp;amp; orders&lt;/b&gt;" style="text;html=1;align=center;verticalAlign=middle;whiteSpace=wrap;rounded=0;" parent="1" vertex="1">
          <mxGeometry x="-70" y="210" width="190" height="30" as="geometry" />
        </mxCell>
        <mxCell id="GZH07b2RbEYxaKx2U_Rh-18" style="edgeStyle=orthogonalEdgeStyle;rounded=0;orthogonalLoop=1;jettySize=auto;html=1;entryX=0;entryY=0.5;entryDx=0;entryDy=0;" parent="1" source="GZH07b2RbEYxaKx2U_Rh-17" target="GZH07b2RbEYxaKx2U_Rh-8" edge="1">
          <mxGeometry relative="1" as="geometry">
            <Array as="points">
              <mxPoint x="250" y="290" />
              <mxPoint x="250" y="205" />
            </Array>
          </mxGeometry>
        </mxCell>
        <mxCell id="GZH07b2RbEYxaKx2U_Rh-19" style="edgeStyle=orthogonalEdgeStyle;rounded=0;orthogonalLoop=1;jettySize=auto;html=1;entryX=0;entryY=0.5;entryDx=0;entryDy=0;" parent="1" source="GZH07b2RbEYxaKx2U_Rh-12" target="GZH07b2RbEYxaKx2U_Rh-4" edge="1">
          <mxGeometry relative="1" as="geometry">
            <Array as="points">
              <mxPoint x="250" y="330" />
              <mxPoint x="250" y="395" />
            </Array>
          </mxGeometry>
        </mxCell>
        <mxCell id="GZH07b2RbEYxaKx2U_Rh-21" value="&lt;b&gt;erp_cust_az12&lt;/b&gt;" style="swimlane;fontStyle=0;childLayout=stackLayout;horizontal=1;startSize=30;horizontalStack=0;resizeParent=1;resizeParentMax=0;resizeLast=0;collapsible=1;marginBottom=0;whiteSpace=wrap;html=1;fillColor=#ffe6cc;rounded=1;sketch=1;curveFitting=1;jiggle=2;strokeColor=#d79b00;fontSize=19;align=center;arcSize=18;" parent="1" vertex="1">
          <mxGeometry x="897.5" y="330" width="205" height="90" as="geometry">
            <mxRectangle x="320" y="180" width="160" height="40" as="alternateBounds" />
          </mxGeometry>
        </mxCell>
        <mxCell id="GZH07b2RbEYxaKx2U_Rh-22" value="cid" style="text;strokeColor=#d79b00;fillColor=#ffe6cc;align=center;verticalAlign=middle;spacingLeft=4;spacingRight=4;overflow=hidden;points=[[0,0.5],[1,0.5]];portConstraint=eastwest;rotatable=0;whiteSpace=wrap;html=1;fontSize=19;" parent="GZH07b2RbEYxaKx2U_Rh-21" vertex="1">
          <mxGeometry y="30" width="205" height="30" as="geometry" />
        </mxCell>
        <mxCell id="803bFkHNsz5kupFcE3BZ-7" value="&lt;div&gt;&lt;b&gt;&lt;i&gt;Customer&lt;/i&gt;&lt;/b&gt;&lt;/div&gt;" style="text;html=1;strokeColor=#6c8ebf;fillColor=#dae8fc;align=center;verticalAlign=middle;whiteSpace=wrap;overflow=hidden;fontSize=19;" vertex="1" parent="GZH07b2RbEYxaKx2U_Rh-21">
          <mxGeometry y="60" width="205" height="30" as="geometry" />
        </mxCell>
        <mxCell id="GZH07b2RbEYxaKx2U_Rh-23" value="&lt;b&gt;Extra Cstomer information (Birthdate)&lt;/b&gt;" style="text;html=1;align=center;verticalAlign=middle;whiteSpace=wrap;rounded=0;" parent="1" vertex="1">
          <mxGeometry x="902.5" y="300" width="190" height="30" as="geometry" />
        </mxCell>
        <mxCell id="GZH07b2RbEYxaKx2U_Rh-24" value="&lt;b&gt;erp_loc_a101&lt;/b&gt;" style="swimlane;fontStyle=0;childLayout=stackLayout;horizontal=1;startSize=30;horizontalStack=0;resizeParent=1;resizeParentMax=0;resizeLast=0;collapsible=1;marginBottom=0;whiteSpace=wrap;html=1;fillColor=#ffe6cc;rounded=1;sketch=1;curveFitting=1;jiggle=2;strokeColor=#d79b00;fontSize=19;align=center;arcSize=18;" parent="1" vertex="1">
          <mxGeometry x="897.5" y="535" width="205" height="90" as="geometry">
            <mxRectangle x="320" y="180" width="160" height="40" as="alternateBounds" />
          </mxGeometry>
        </mxCell>
        <mxCell id="GZH07b2RbEYxaKx2U_Rh-25" value="cid" style="text;strokeColor=#d79b00;fillColor=#ffe6cc;align=center;verticalAlign=middle;spacingLeft=4;spacingRight=4;overflow=hidden;points=[[0,0.5],[1,0.5]];portConstraint=eastwest;rotatable=0;whiteSpace=wrap;html=1;fontSize=19;" parent="GZH07b2RbEYxaKx2U_Rh-24" vertex="1">
          <mxGeometry y="30" width="205" height="30" as="geometry" />
        </mxCell>
        <mxCell id="803bFkHNsz5kupFcE3BZ-5" value="&lt;div&gt;&lt;b&gt;&lt;i&gt;Customer&lt;/i&gt;&lt;/b&gt;&lt;/div&gt;" style="text;html=1;strokeColor=#6c8ebf;fillColor=#dae8fc;align=center;verticalAlign=middle;whiteSpace=wrap;overflow=hidden;fontSize=19;" vertex="1" parent="GZH07b2RbEYxaKx2U_Rh-24">
          <mxGeometry y="60" width="205" height="30" as="geometry" />
        </mxCell>
        <mxCell id="GZH07b2RbEYxaKx2U_Rh-26" value="&lt;b&gt;Location of customers(Country)&lt;/b&gt;" style="text;html=1;align=center;verticalAlign=middle;whiteSpace=wrap;rounded=0;" parent="1" vertex="1">
          <mxGeometry x="902.5" y="505" width="190" height="30" as="geometry" />
        </mxCell>
        <mxCell id="GZH07b2RbEYxaKx2U_Rh-27" value="&lt;b&gt;erp_px_cat_g1v2&lt;/b&gt;" style="swimlane;fontStyle=0;childLayout=stackLayout;horizontal=1;startSize=30;horizontalStack=0;resizeParent=1;resizeParentMax=0;resizeLast=0;collapsible=1;marginBottom=0;whiteSpace=wrap;html=1;fillColor=#ffe6cc;rounded=1;sketch=1;curveFitting=1;jiggle=2;strokeColor=#d79b00;fontSize=19;align=center;arcSize=18;" parent="1" vertex="1">
          <mxGeometry x="902.5" y="160" width="205" height="90" as="geometry">
            <mxRectangle x="320" y="180" width="160" height="40" as="alternateBounds" />
          </mxGeometry>
        </mxCell>
        <mxCell id="GZH07b2RbEYxaKx2U_Rh-28" value="id" style="text;strokeColor=#d79b00;fillColor=#ffe6cc;align=center;verticalAlign=middle;spacingLeft=4;spacingRight=4;overflow=hidden;points=[[0,0.5],[1,0.5]];portConstraint=eastwest;rotatable=0;whiteSpace=wrap;html=1;fontSize=19;" parent="GZH07b2RbEYxaKx2U_Rh-27" vertex="1">
          <mxGeometry y="30" width="205" height="30" as="geometry" />
        </mxCell>
        <mxCell id="803bFkHNsz5kupFcE3BZ-4" value="&lt;b&gt;&lt;i&gt;Product&lt;/i&gt;&lt;/b&gt;&lt;div&gt;&lt;br&gt;&lt;/div&gt;" style="text;html=1;strokeColor=#793735;fillColor=#EA6B66;align=center;verticalAlign=middle;whiteSpace=wrap;overflow=hidden;fontSize=19;" vertex="1" parent="GZH07b2RbEYxaKx2U_Rh-27">
          <mxGeometry y="60" width="205" height="30" as="geometry" />
        </mxCell>
        <mxCell id="GZH07b2RbEYxaKx2U_Rh-29" value="&lt;b&gt;Product categories&lt;/b&gt;" style="text;html=1;align=center;verticalAlign=middle;whiteSpace=wrap;rounded=0;" parent="1" vertex="1">
          <mxGeometry x="907.5" y="130" width="190" height="30" as="geometry" />
        </mxCell>
        <mxCell id="GZH07b2RbEYxaKx2U_Rh-30" style="edgeStyle=orthogonalEdgeStyle;rounded=0;orthogonalLoop=1;jettySize=auto;html=1;" parent="1" source="GZH07b2RbEYxaKx2U_Rh-28" target="GZH07b2RbEYxaKx2U_Rh-8" edge="1">
          <mxGeometry relative="1" as="geometry" />
        </mxCell>
        <mxCell id="GZH07b2RbEYxaKx2U_Rh-31" style="edgeStyle=orthogonalEdgeStyle;rounded=0;orthogonalLoop=1;jettySize=auto;html=1;entryX=1;entryY=0.75;entryDx=0;entryDy=0;" parent="1" source="GZH07b2RbEYxaKx2U_Rh-22" target="GZH07b2RbEYxaKx2U_Rh-3" edge="1">
          <mxGeometry relative="1" as="geometry" />
        </mxCell>
        <mxCell id="GZH07b2RbEYxaKx2U_Rh-34" style="edgeStyle=orthogonalEdgeStyle;rounded=0;orthogonalLoop=1;jettySize=auto;html=1;entryX=1;entryY=0.5;entryDx=0;entryDy=0;" parent="1" source="GZH07b2RbEYxaKx2U_Rh-25" target="GZH07b2RbEYxaKx2U_Rh-20" edge="1">
          <mxGeometry relative="1" as="geometry" />
        </mxCell>
        <mxCell id="GZH07b2RbEYxaKx2U_Rh-36" value="" style="rounded=1;whiteSpace=wrap;html=1;fillColor=#e1d5e7;strokeColor=#9673a6;" parent="1" vertex="1">
          <mxGeometry x="155" y="75" width="210" height="60" as="geometry" />
        </mxCell>
        <mxCell id="GZH07b2RbEYxaKx2U_Rh-37" value="&lt;b&gt;&lt;font style=&quot;font-size: 25px;&quot;&gt;CRM&lt;/font&gt;&lt;/b&gt;" style="text;html=1;align=center;verticalAlign=middle;whiteSpace=wrap;rounded=0;" parent="1" vertex="1">
          <mxGeometry x="185" y="90" width="150" height="30" as="geometry" />
        </mxCell>
        <mxCell id="GZH07b2RbEYxaKx2U_Rh-40" value="" style="rounded=1;whiteSpace=wrap;html=1;fillColor=#f8cecc;strokeColor=#b85450;" parent="1" vertex="1">
          <mxGeometry x="990" y="75" width="210" height="60" as="geometry" />
        </mxCell>
        <mxCell id="GZH07b2RbEYxaKx2U_Rh-41" value="&lt;span style=&quot;font-size: 25px;&quot;&gt;&lt;b&gt;ERP&lt;/b&gt;&lt;/span&gt;" style="text;html=1;align=center;verticalAlign=middle;whiteSpace=wrap;rounded=0;" parent="1" vertex="1">
          <mxGeometry x="1020" y="90" width="150" height="30" as="geometry" />
        </mxCell>
      </root>
    </mxGraphModel>
  </diagram>
</mxfile>
